<mxfile host="app.diagrams.net" modified="2021-03-12T13:49:42.230Z" agent="5.0 (Windows NT 10.0; Win64; x64) AppleWebKit/537.36 (KHTML, like Gecko) Chrome/88.0.4324.190 Safari/537.36" etag="1m617lSwmQV3dDCA1ygR" version="14.4.6" type="github">
  <diagram id="9_1sO07OhJ9FRKc1vzgv" name="Page-1">
    <mxGraphModel dx="1888" dy="617" grid="0" gridSize="10" guides="1" tooltips="1" connect="1" arrows="1" fold="1" page="1" pageScale="1" pageWidth="850" pageHeight="1100" math="0" shadow="0">
      <root>
        <mxCell id="0" />
        <mxCell id="1" parent="0" />
        <mxCell id="UMwyM1W5Pn3s6P2YmB9g-111" value="" style="rounded=0;whiteSpace=wrap;html=1;fillColor=#e1d5e7;strokeColor=#9673a6;" parent="1" vertex="1">
          <mxGeometry x="110" y="772" width="315" height="234" as="geometry" />
        </mxCell>
        <mxCell id="2XTefIz1HCk_Dmgl4uMw-26" value="" style="rounded=0;whiteSpace=wrap;html=1;" parent="1" vertex="1">
          <mxGeometry x="-254.49" y="15" width="452.49" height="130" as="geometry" />
        </mxCell>
        <mxCell id="2XTefIz1HCk_Dmgl4uMw-6" style="edgeStyle=orthogonalEdgeStyle;rounded=0;orthogonalLoop=1;jettySize=auto;html=1;entryX=0.5;entryY=0;entryDx=0;entryDy=0;" parent="1" source="2XTefIz1HCk_Dmgl4uMw-3" target="2XTefIz1HCk_Dmgl4uMw-5" edge="1">
          <mxGeometry relative="1" as="geometry" />
        </mxCell>
        <mxCell id="2XTefIz1HCk_Dmgl4uMw-15" value="" style="edgeStyle=orthogonalEdgeStyle;rounded=0;orthogonalLoop=1;jettySize=auto;html=1;" parent="1" source="2XTefIz1HCk_Dmgl4uMw-3" target="2XTefIz1HCk_Dmgl4uMw-5" edge="1">
          <mxGeometry relative="1" as="geometry" />
        </mxCell>
        <mxCell id="2XTefIz1HCk_Dmgl4uMw-3" value="&lt;font style=&quot;font-size: 18px&quot;&gt;data index list&lt;/font&gt;" style="text;html=1;strokeColor=none;fillColor=none;align=center;verticalAlign=middle;whiteSpace=wrap;rounded=0;" parent="1" vertex="1">
          <mxGeometry x="-112" y="35" width="150" as="geometry" />
        </mxCell>
        <mxCell id="2XTefIz1HCk_Dmgl4uMw-5" value="&lt;font style=&quot;font-size: 18px&quot;&gt;Sampling (Shuffle)&lt;/font&gt;" style="rounded=0;whiteSpace=wrap;html=1;" parent="1" vertex="1">
          <mxGeometry x="-155.75" y="75" width="237.5" height="40" as="geometry" />
        </mxCell>
        <mxCell id="2XTefIz1HCk_Dmgl4uMw-19" value="&lt;font style=&quot;font-size: 18px&quot;&gt;a batch of indx&lt;/font&gt;" style="text;html=1;strokeColor=none;fillColor=none;align=center;verticalAlign=middle;whiteSpace=wrap;rounded=0;" parent="1" vertex="1">
          <mxGeometry x="-52" y="155" width="150" as="geometry" />
        </mxCell>
        <mxCell id="2XTefIz1HCk_Dmgl4uMw-30" value="&lt;font style=&quot;font-size: 18px&quot;&gt;a batch of data&lt;/font&gt;" style="text;html=1;strokeColor=none;fillColor=none;align=center;verticalAlign=middle;whiteSpace=wrap;rounded=0;" parent="1" vertex="1">
          <mxGeometry x="-282" y="205" width="150" as="geometry" />
        </mxCell>
        <mxCell id="2XTefIz1HCk_Dmgl4uMw-40" value="" style="group" parent="1" vertex="1" connectable="0">
          <mxGeometry x="-132.00000000000006" y="185" width="179.92000000000002" height="140" as="geometry" />
        </mxCell>
        <mxCell id="2XTefIz1HCk_Dmgl4uMw-38" value="&lt;span style=&quot;font-size: 18px&quot;&gt;Worker&lt;/span&gt;" style="rounded=0;whiteSpace=wrap;html=1;" parent="2XTefIz1HCk_Dmgl4uMw-40" vertex="1">
          <mxGeometry y="65" width="168.91" height="65" as="geometry" />
        </mxCell>
        <mxCell id="2XTefIz1HCk_Dmgl4uMw-35" value="&lt;span style=&quot;font-size: 18px&quot;&gt;Worker&lt;/span&gt;" style="rounded=0;whiteSpace=wrap;html=1;" parent="2XTefIz1HCk_Dmgl4uMw-40" vertex="1">
          <mxGeometry x="0.5500000000000114" width="168.91" height="65" as="geometry" />
        </mxCell>
        <mxCell id="2XTefIz1HCk_Dmgl4uMw-36" value="&lt;span style=&quot;font-size: 18px&quot;&gt;Worker&lt;/span&gt;" style="rounded=0;whiteSpace=wrap;html=1;" parent="2XTefIz1HCk_Dmgl4uMw-40" vertex="1">
          <mxGeometry x="10.550000000000011" y="10" width="168.91" height="65" as="geometry" />
        </mxCell>
        <mxCell id="2XTefIz1HCk_Dmgl4uMw-37" value="&lt;span style=&quot;font-size: 18px&quot;&gt;DataSet&lt;/span&gt;" style="rounded=0;whiteSpace=wrap;html=1;" parent="2XTefIz1HCk_Dmgl4uMw-40" vertex="1">
          <mxGeometry x="11.009999999999991" y="75" width="168.91" height="65" as="geometry" />
        </mxCell>
        <mxCell id="2XTefIz1HCk_Dmgl4uMw-39" style="edgeStyle=orthogonalEdgeStyle;rounded=0;orthogonalLoop=1;jettySize=auto;html=1;exitX=0.5;exitY=1;exitDx=0;exitDy=0;" parent="1" source="2XTefIz1HCk_Dmgl4uMw-5" target="2XTefIz1HCk_Dmgl4uMw-36" edge="1">
          <mxGeometry relative="1" as="geometry" />
        </mxCell>
        <mxCell id="2XTefIz1HCk_Dmgl4uMw-42" style="edgeStyle=orthogonalEdgeStyle;rounded=0;orthogonalLoop=1;jettySize=auto;html=1;entryX=0.25;entryY=1;entryDx=0;entryDy=0;" parent="1" source="2XTefIz1HCk_Dmgl4uMw-37" target="2XTefIz1HCk_Dmgl4uMw-26" edge="1">
          <mxGeometry relative="1" as="geometry">
            <Array as="points">
              <mxPoint x="-141" y="293" />
            </Array>
          </mxGeometry>
        </mxCell>
        <mxCell id="2XTefIz1HCk_Dmgl4uMw-68" value="&lt;font size=&quot;3&quot;&gt;write data&lt;/font&gt;" style="edgeStyle=orthogonalEdgeStyle;rounded=0;orthogonalLoop=1;jettySize=auto;html=1;entryX=0;entryY=0.5;entryDx=0;entryDy=0;" parent="1" source="2XTefIz1HCk_Dmgl4uMw-62" target="2XTefIz1HCk_Dmgl4uMw-63" edge="1">
          <mxGeometry relative="1" as="geometry">
            <Array as="points">
              <mxPoint x="290" y="1179" />
              <mxPoint x="290" y="1179" />
            </Array>
          </mxGeometry>
        </mxCell>
        <mxCell id="2XTefIz1HCk_Dmgl4uMw-62" value="&lt;font style=&quot;font-size: 24px&quot;&gt;100&lt;/font&gt;" style="ellipse;whiteSpace=wrap;html=1;aspect=fixed;" parent="1" vertex="1">
          <mxGeometry x="133" y="1139" width="80" height="80" as="geometry" />
        </mxCell>
        <mxCell id="2XTefIz1HCk_Dmgl4uMw-69" value="&lt;font size=&quot;3&quot;&gt;write next&lt;/font&gt;" style="edgeStyle=orthogonalEdgeStyle;rounded=0;orthogonalLoop=1;jettySize=auto;html=1;" parent="1" source="2XTefIz1HCk_Dmgl4uMw-63" target="2XTefIz1HCk_Dmgl4uMw-65" edge="1">
          <mxGeometry relative="1" as="geometry" />
        </mxCell>
        <mxCell id="2XTefIz1HCk_Dmgl4uMw-70" value="&lt;font style=&quot;font-size: 14px&quot;&gt;read data&lt;/font&gt;" style="edgeStyle=orthogonalEdgeStyle;rounded=0;orthogonalLoop=1;jettySize=auto;html=1;" parent="1" source="2XTefIz1HCk_Dmgl4uMw-63" target="2XTefIz1HCk_Dmgl4uMw-64" edge="1">
          <mxGeometry relative="1" as="geometry" />
        </mxCell>
        <mxCell id="2XTefIz1HCk_Dmgl4uMw-63" value="&lt;font style=&quot;font-size: 24px&quot;&gt;101&lt;/font&gt;" style="ellipse;whiteSpace=wrap;html=1;aspect=fixed;" parent="1" vertex="1">
          <mxGeometry x="293" y="1139" width="80" height="80" as="geometry" />
        </mxCell>
        <mxCell id="2XTefIz1HCk_Dmgl4uMw-71" value="&lt;font style=&quot;font-size: 14px&quot;&gt;write next&lt;/font&gt;" style="edgeStyle=orthogonalEdgeStyle;rounded=0;orthogonalLoop=1;jettySize=auto;html=1;" parent="1" source="2XTefIz1HCk_Dmgl4uMw-64" target="2XTefIz1HCk_Dmgl4uMw-66" edge="1">
          <mxGeometry relative="1" as="geometry" />
        </mxCell>
        <mxCell id="2XTefIz1HCk_Dmgl4uMw-64" value="&lt;font style=&quot;font-size: 24px&quot;&gt;100&lt;/font&gt;" style="ellipse;whiteSpace=wrap;html=1;aspect=fixed;" parent="1" vertex="1">
          <mxGeometry x="293" y="1290" width="80" height="80" as="geometry" />
        </mxCell>
        <mxCell id="2XTefIz1HCk_Dmgl4uMw-72" value="&lt;font style=&quot;font-size: 14px&quot;&gt;read data&lt;/font&gt;" style="edgeStyle=orthogonalEdgeStyle;rounded=0;orthogonalLoop=1;jettySize=auto;html=1;entryX=0.5;entryY=0;entryDx=0;entryDy=0;" parent="1" source="2XTefIz1HCk_Dmgl4uMw-65" target="2XTefIz1HCk_Dmgl4uMw-66" edge="1">
          <mxGeometry relative="1" as="geometry" />
        </mxCell>
        <mxCell id="2XTefIz1HCk_Dmgl4uMw-65" value="&lt;font style=&quot;font-size: 24px&quot;&gt;111&lt;/font&gt;" style="ellipse;whiteSpace=wrap;html=1;aspect=fixed;" parent="1" vertex="1">
          <mxGeometry x="452" y="1139" width="80" height="80" as="geometry" />
        </mxCell>
        <mxCell id="2XTefIz1HCk_Dmgl4uMw-74" value="&lt;font style=&quot;font-size: 14px&quot;&gt;read next&lt;/font&gt;" style="edgeStyle=orthogonalEdgeStyle;rounded=0;orthogonalLoop=1;jettySize=auto;html=1;entryX=0;entryY=0.5;entryDx=0;entryDy=0;" parent="1" source="2XTefIz1HCk_Dmgl4uMw-66" target="2XTefIz1HCk_Dmgl4uMw-67" edge="1">
          <mxGeometry relative="1" as="geometry" />
        </mxCell>
        <mxCell id="2XTefIz1HCk_Dmgl4uMw-66" value="&lt;font style=&quot;font-size: 24px&quot;&gt;110&lt;/font&gt;" style="ellipse;whiteSpace=wrap;html=1;aspect=fixed;" parent="1" vertex="1">
          <mxGeometry x="452" y="1290" width="80" height="80" as="geometry" />
        </mxCell>
        <mxCell id="2XTefIz1HCk_Dmgl4uMw-67" value="&lt;font style=&quot;font-size: 24px&quot;&gt;000&lt;/font&gt;" style="ellipse;whiteSpace=wrap;html=1;aspect=fixed;" parent="1" vertex="1">
          <mxGeometry x="611" y="1290" width="80" height="80" as="geometry" />
        </mxCell>
        <mxCell id="2XTefIz1HCk_Dmgl4uMw-75" value="" style="rounded=0;whiteSpace=wrap;html=1;" parent="1" vertex="1">
          <mxGeometry x="179" y="1480" width="367" height="142" as="geometry" />
        </mxCell>
        <mxCell id="2XTefIz1HCk_Dmgl4uMw-79" style="edgeStyle=orthogonalEdgeStyle;rounded=0;orthogonalLoop=1;jettySize=auto;html=1;exitX=1;exitY=0.5;exitDx=0;exitDy=0;" parent="1" source="2XTefIz1HCk_Dmgl4uMw-76" edge="1">
          <mxGeometry relative="1" as="geometry">
            <mxPoint x="341" y="1551" as="targetPoint" />
          </mxGeometry>
        </mxCell>
        <mxCell id="2XTefIz1HCk_Dmgl4uMw-76" value="&lt;font style=&quot;font-size: 24px&quot;&gt;inode&lt;/font&gt;" style="rounded=0;whiteSpace=wrap;html=1;" parent="1" vertex="1">
          <mxGeometry x="179" y="1480" width="120" height="142" as="geometry" />
        </mxCell>
        <mxCell id="2XTefIz1HCk_Dmgl4uMw-80" style="edgeStyle=orthogonalEdgeStyle;rounded=0;orthogonalLoop=1;jettySize=auto;html=1;exitX=0;exitY=0.5;exitDx=0;exitDy=0;" parent="1" source="2XTefIz1HCk_Dmgl4uMw-77" edge="1">
          <mxGeometry relative="1" as="geometry">
            <mxPoint x="357" y="1551" as="targetPoint" />
          </mxGeometry>
        </mxCell>
        <mxCell id="2XTefIz1HCk_Dmgl4uMw-77" value="&lt;font style=&quot;font-size: 24px&quot;&gt;data node&lt;/font&gt;" style="rounded=0;whiteSpace=wrap;html=1;" parent="1" vertex="1">
          <mxGeometry x="428" y="1480" width="179" height="142" as="geometry" />
        </mxCell>
        <mxCell id="2XTefIz1HCk_Dmgl4uMw-130" value="" style="group" parent="1" vertex="1" connectable="0">
          <mxGeometry x="21" y="1715" width="800" height="398" as="geometry" />
        </mxCell>
        <mxCell id="2XTefIz1HCk_Dmgl4uMw-94" value="" style="group" parent="2XTefIz1HCk_Dmgl4uMw-130" vertex="1" connectable="0">
          <mxGeometry x="170" width="630" height="398" as="geometry" />
        </mxCell>
        <mxCell id="2XTefIz1HCk_Dmgl4uMw-100" style="edgeStyle=orthogonalEdgeStyle;rounded=0;jumpSize=6;orthogonalLoop=1;jettySize=auto;html=1;entryX=0;entryY=0.5;entryDx=0;entryDy=0;dashed=1;startSize=6;endArrow=classic;endFill=1;endSize=6;" parent="2XTefIz1HCk_Dmgl4uMw-94" source="2XTefIz1HCk_Dmgl4uMw-81" target="2XTefIz1HCk_Dmgl4uMw-82" edge="1">
          <mxGeometry relative="1" as="geometry" />
        </mxCell>
        <mxCell id="2XTefIz1HCk_Dmgl4uMw-81" value="&lt;font style=&quot;font-size: 18px&quot;&gt;Server&lt;/font&gt;" style="rounded=0;whiteSpace=wrap;html=1;fillColor=#b1ddf0;strokeColor=#10739e;" parent="2XTefIz1HCk_Dmgl4uMw-94" vertex="1">
          <mxGeometry x="25" y="1" width="72" height="279" as="geometry" />
        </mxCell>
        <mxCell id="2XTefIz1HCk_Dmgl4uMw-82" value="" style="rounded=0;whiteSpace=wrap;html=1;fillColor=#b1ddf0;strokeColor=#10739e;" parent="2XTefIz1HCk_Dmgl4uMw-94" vertex="1">
          <mxGeometry x="136" width="234" height="281" as="geometry" />
        </mxCell>
        <mxCell id="2XTefIz1HCk_Dmgl4uMw-120" style="edgeStyle=orthogonalEdgeStyle;rounded=0;jumpSize=6;orthogonalLoop=1;jettySize=auto;html=1;entryX=0.25;entryY=1;entryDx=0;entryDy=0;dashed=1;startSize=6;endArrow=classic;endFill=1;endSize=6;" parent="2XTefIz1HCk_Dmgl4uMw-94" source="2XTefIz1HCk_Dmgl4uMw-83" target="2XTefIz1HCk_Dmgl4uMw-85" edge="1">
          <mxGeometry relative="1" as="geometry" />
        </mxCell>
        <mxCell id="2XTefIz1HCk_Dmgl4uMw-83" value="&lt;font style=&quot;font-size: 14px&quot;&gt;SubSampler1&lt;/font&gt;" style="rounded=1;whiteSpace=wrap;html=1;fillColor=#fad9d5;strokeColor=#ae4132;" parent="2XTefIz1HCk_Dmgl4uMw-94" vertex="1">
          <mxGeometry x="160.5" y="103" width="91.5" height="86" as="geometry" />
        </mxCell>
        <mxCell id="2XTefIz1HCk_Dmgl4uMw-85" value="&lt;font style=&quot;font-size: 18px&quot;&gt;Sampling&lt;/font&gt;" style="rounded=1;whiteSpace=wrap;html=1;" parent="2XTefIz1HCk_Dmgl4uMw-94" vertex="1">
          <mxGeometry x="160.5" y="20" width="185" height="50" as="geometry" />
        </mxCell>
        <mxCell id="2XTefIz1HCk_Dmgl4uMw-127" style="edgeStyle=orthogonalEdgeStyle;rounded=0;jumpSize=6;orthogonalLoop=1;jettySize=auto;html=1;entryX=1;entryY=0.5;entryDx=0;entryDy=0;startSize=6;endArrow=classic;endFill=1;endSize=6;" parent="2XTefIz1HCk_Dmgl4uMw-94" source="2XTefIz1HCk_Dmgl4uMw-86" target="2XTefIz1HCk_Dmgl4uMw-93" edge="1">
          <mxGeometry relative="1" as="geometry" />
        </mxCell>
        <mxCell id="2XTefIz1HCk_Dmgl4uMw-86" value="&lt;font style=&quot;font-size: 18px&quot;&gt;data dispatch&lt;/font&gt;" style="rounded=1;whiteSpace=wrap;html=1;" parent="2XTefIz1HCk_Dmgl4uMw-94" vertex="1">
          <mxGeometry x="160.5" y="215" width="185" height="50" as="geometry" />
        </mxCell>
        <mxCell id="2XTefIz1HCk_Dmgl4uMw-87" value="" style="rounded=0;whiteSpace=wrap;html=1;fillColor=#b1ddf0;strokeColor=#10739e;" parent="2XTefIz1HCk_Dmgl4uMw-94" vertex="1">
          <mxGeometry x="396" width="234" height="281" as="geometry" />
        </mxCell>
        <mxCell id="2XTefIz1HCk_Dmgl4uMw-123" style="edgeStyle=orthogonalEdgeStyle;rounded=0;jumpSize=6;orthogonalLoop=1;jettySize=auto;html=1;dashed=1;startSize=6;endArrow=classic;endFill=1;endSize=6;" parent="2XTefIz1HCk_Dmgl4uMw-94" source="2XTefIz1HCk_Dmgl4uMw-89" target="2XTefIz1HCk_Dmgl4uMw-90" edge="1">
          <mxGeometry relative="1" as="geometry" />
        </mxCell>
        <mxCell id="2XTefIz1HCk_Dmgl4uMw-89" value="&lt;font style=&quot;font-size: 18px&quot;&gt;loader&lt;/font&gt;" style="rounded=1;whiteSpace=wrap;html=1;" parent="2XTefIz1HCk_Dmgl4uMw-94" vertex="1">
          <mxGeometry x="453" y="15" width="120" height="60" as="geometry" />
        </mxCell>
        <mxCell id="2XTefIz1HCk_Dmgl4uMw-124" style="edgeStyle=orthogonalEdgeStyle;rounded=0;jumpSize=6;orthogonalLoop=1;jettySize=auto;html=1;entryX=1;entryY=0.5;entryDx=0;entryDy=0;startSize=6;endArrow=classic;endFill=1;endSize=6;" parent="2XTefIz1HCk_Dmgl4uMw-94" source="2XTefIz1HCk_Dmgl4uMw-90" target="2XTefIz1HCk_Dmgl4uMw-86" edge="1">
          <mxGeometry relative="1" as="geometry" />
        </mxCell>
        <mxCell id="2XTefIz1HCk_Dmgl4uMw-90" value="&lt;font style=&quot;font-size: 18px&quot;&gt;process pool&lt;/font&gt;" style="rounded=1;whiteSpace=wrap;html=1;" parent="2XTefIz1HCk_Dmgl4uMw-94" vertex="1">
          <mxGeometry x="453" y="210" width="120" height="60" as="geometry" />
        </mxCell>
        <mxCell id="2XTefIz1HCk_Dmgl4uMw-125" style="edgeStyle=orthogonalEdgeStyle;rounded=0;jumpSize=6;orthogonalLoop=1;jettySize=auto;html=1;startSize=6;endArrow=classic;endFill=1;endSize=6;" parent="2XTefIz1HCk_Dmgl4uMw-94" source="2XTefIz1HCk_Dmgl4uMw-91" target="2XTefIz1HCk_Dmgl4uMw-90" edge="1">
          <mxGeometry relative="1" as="geometry" />
        </mxCell>
        <mxCell id="2XTefIz1HCk_Dmgl4uMw-91" value="&lt;font style=&quot;font-size: 24px&quot;&gt;disk&lt;/font&gt;" style="rounded=0;whiteSpace=wrap;html=1;fillColor=#d0cee2;strokeColor=#56517e;" parent="2XTefIz1HCk_Dmgl4uMw-94" vertex="1">
          <mxGeometry x="453" y="325" width="120" height="60" as="geometry" />
        </mxCell>
        <mxCell id="2XTefIz1HCk_Dmgl4uMw-93" value="&lt;font style=&quot;font-size: 18px&quot;&gt;Buffer Pool&lt;/font&gt;" style="rounded=0;whiteSpace=wrap;html=1;fillColor=#d0cee2;strokeColor=#56517e;" parent="2XTefIz1HCk_Dmgl4uMw-94" vertex="1">
          <mxGeometry x="-108" y="320.5" width="340" height="70.5" as="geometry" />
        </mxCell>
        <mxCell id="2XTefIz1HCk_Dmgl4uMw-121" style="edgeStyle=orthogonalEdgeStyle;rounded=0;jumpSize=6;orthogonalLoop=1;jettySize=auto;html=1;entryX=0.75;entryY=1;entryDx=0;entryDy=0;dashed=1;startSize=6;endArrow=classic;endFill=1;endSize=6;" parent="2XTefIz1HCk_Dmgl4uMw-94" source="2XTefIz1HCk_Dmgl4uMw-115" target="2XTefIz1HCk_Dmgl4uMw-85" edge="1">
          <mxGeometry relative="1" as="geometry" />
        </mxCell>
        <mxCell id="2XTefIz1HCk_Dmgl4uMw-115" value="&lt;font style=&quot;font-size: 14px&quot;&gt;SubSampler2&lt;/font&gt;" style="rounded=1;whiteSpace=wrap;html=1;fillColor=#fad9d5;strokeColor=#ae4132;" parent="2XTefIz1HCk_Dmgl4uMw-94" vertex="1">
          <mxGeometry x="255" y="103" width="87.5" height="84" as="geometry" />
        </mxCell>
        <mxCell id="2XTefIz1HCk_Dmgl4uMw-119" style="edgeStyle=orthogonalEdgeStyle;rounded=0;jumpSize=6;orthogonalLoop=1;jettySize=auto;html=1;entryX=0;entryY=0.5;entryDx=0;entryDy=0;dashed=1;startSize=6;endArrow=classic;endFill=1;endSize=6;" parent="2XTefIz1HCk_Dmgl4uMw-94" source="2XTefIz1HCk_Dmgl4uMw-85" target="2XTefIz1HCk_Dmgl4uMw-89" edge="1">
          <mxGeometry relative="1" as="geometry" />
        </mxCell>
        <mxCell id="2XTefIz1HCk_Dmgl4uMw-97" style="edgeStyle=orthogonalEdgeStyle;rounded=0;orthogonalLoop=1;jettySize=auto;html=1;entryX=0;entryY=0.25;entryDx=0;entryDy=0;dashed=1;endSize=6;startSize=6;jumpSize=6;endArrow=classic;endFill=1;" parent="2XTefIz1HCk_Dmgl4uMw-130" source="2XTefIz1HCk_Dmgl4uMw-95" target="2XTefIz1HCk_Dmgl4uMw-81" edge="1">
          <mxGeometry relative="1" as="geometry" />
        </mxCell>
        <mxCell id="2XTefIz1HCk_Dmgl4uMw-95" value="&lt;font style=&quot;font-size: 18px&quot;&gt;task1&lt;/font&gt;" style="rounded=0;whiteSpace=wrap;html=1;fillColor=#fad9d5;strokeColor=#ae4132;" parent="2XTefIz1HCk_Dmgl4uMw-130" vertex="1">
          <mxGeometry x="28" y="51" width="108" height="40" as="geometry" />
        </mxCell>
        <mxCell id="2XTefIz1HCk_Dmgl4uMw-98" style="edgeStyle=orthogonalEdgeStyle;rounded=0;orthogonalLoop=1;jettySize=auto;html=1;dashed=1;" parent="2XTefIz1HCk_Dmgl4uMw-130" source="2XTefIz1HCk_Dmgl4uMw-96" target="2XTefIz1HCk_Dmgl4uMw-81" edge="1">
          <mxGeometry relative="1" as="geometry" />
        </mxCell>
        <mxCell id="2XTefIz1HCk_Dmgl4uMw-96" value="&lt;font style=&quot;font-size: 18px&quot;&gt;task2&lt;/font&gt;" style="rounded=0;whiteSpace=wrap;html=1;fillColor=#fad9d5;strokeColor=#ae4132;" parent="2XTefIz1HCk_Dmgl4uMw-130" vertex="1">
          <mxGeometry x="28" y="120.5" width="108" height="40" as="geometry" />
        </mxCell>
        <mxCell id="2XTefIz1HCk_Dmgl4uMw-128" style="edgeStyle=orthogonalEdgeStyle;rounded=0;jumpSize=6;orthogonalLoop=1;jettySize=auto;html=1;entryX=0;entryY=0.5;entryDx=0;entryDy=0;startSize=6;endArrow=classic;endFill=1;endSize=6;" parent="2XTefIz1HCk_Dmgl4uMw-130" source="2XTefIz1HCk_Dmgl4uMw-93" target="2XTefIz1HCk_Dmgl4uMw-96" edge="1">
          <mxGeometry relative="1" as="geometry">
            <Array as="points">
              <mxPoint x="7" y="356" />
              <mxPoint x="7" y="141" />
            </Array>
          </mxGeometry>
        </mxCell>
        <mxCell id="2XTefIz1HCk_Dmgl4uMw-129" style="edgeStyle=orthogonalEdgeStyle;rounded=0;jumpSize=6;orthogonalLoop=1;jettySize=auto;html=1;entryX=0;entryY=0.5;entryDx=0;entryDy=0;startSize=6;endArrow=classic;endFill=1;endSize=6;" parent="2XTefIz1HCk_Dmgl4uMw-130" source="2XTefIz1HCk_Dmgl4uMw-93" target="2XTefIz1HCk_Dmgl4uMw-95" edge="1">
          <mxGeometry relative="1" as="geometry">
            <Array as="points">
              <mxPoint y="356" />
              <mxPoint y="71" />
            </Array>
          </mxGeometry>
        </mxCell>
        <mxCell id="UMwyM1W5Pn3s6P2YmB9g-10" value="Text" style="text;html=1;strokeColor=none;fillColor=none;align=center;verticalAlign=middle;whiteSpace=wrap;rounded=0;" parent="1" vertex="1">
          <mxGeometry x="404" y="2119" width="40" height="20" as="geometry" />
        </mxCell>
        <mxCell id="UMwyM1W5Pn3s6P2YmB9g-53" value="" style="group" parent="1" vertex="1" connectable="0">
          <mxGeometry x="110" y="772" width="425" height="260" as="geometry" />
        </mxCell>
        <mxCell id="UMwyM1W5Pn3s6P2YmB9g-77" value="" style="group;strokeWidth=2;shadow=0;fillColor=#f5f5f5;strokeColor=#666666;fontColor=#333333;" parent="UMwyM1W5Pn3s6P2YmB9g-53" vertex="1" connectable="0">
          <mxGeometry x="105" width="104.72999999999999" height="57" as="geometry" />
        </mxCell>
        <mxCell id="UMwyM1W5Pn3s6P2YmB9g-125" value="" style="group" parent="UMwyM1W5Pn3s6P2YmB9g-77" vertex="1" connectable="0">
          <mxGeometry width="104.72999999999999" height="57" as="geometry" />
        </mxCell>
        <mxCell id="UMwyM1W5Pn3s6P2YmB9g-73" value="valid&lt;br&gt;byte" style="rounded=0;whiteSpace=wrap;html=1;" parent="UMwyM1W5Pn3s6P2YmB9g-125" vertex="1">
          <mxGeometry width="30.53763440860215" height="57" as="geometry" />
        </mxCell>
        <mxCell id="UMwyM1W5Pn3s6P2YmB9g-74" value="data&lt;br&gt;addr" style="rounded=0;whiteSpace=wrap;html=1;" parent="UMwyM1W5Pn3s6P2YmB9g-125" vertex="1">
          <mxGeometry x="30.54000000000002" width="34.46" height="57" as="geometry" />
        </mxCell>
        <mxCell id="UMwyM1W5Pn3s6P2YmB9g-75" value="next&lt;br&gt;addr" style="rounded=0;whiteSpace=wrap;html=1;" parent="UMwyM1W5Pn3s6P2YmB9g-125" vertex="1">
          <mxGeometry x="65" width="39.73" height="57" as="geometry" />
        </mxCell>
        <mxCell id="UMwyM1W5Pn3s6P2YmB9g-79" value="data" style="rounded=0;whiteSpace=wrap;html=1;" parent="UMwyM1W5Pn3s6P2YmB9g-53" vertex="1">
          <mxGeometry x="166.54" y="149" width="74" height="88" as="geometry" />
        </mxCell>
        <mxCell id="UMwyM1W5Pn3s6P2YmB9g-91" value="data" style="rounded=0;whiteSpace=wrap;html=1;" parent="UMwyM1W5Pn3s6P2YmB9g-53" vertex="1">
          <mxGeometry x="240.54" y="149" width="74" height="88" as="geometry" />
        </mxCell>
        <mxCell id="UMwyM1W5Pn3s6P2YmB9g-92" value="data" style="rounded=0;whiteSpace=wrap;html=1;" parent="UMwyM1W5Pn3s6P2YmB9g-53" vertex="1">
          <mxGeometry x="92.54" y="149" width="74" height="88" as="geometry" />
        </mxCell>
        <mxCell id="UMwyM1W5Pn3s6P2YmB9g-94" value="" style="group;fillColor=#fff2cc;strokeColor=#d6b656;" parent="UMwyM1W5Pn3s6P2YmB9g-53" vertex="1" connectable="0">
          <mxGeometry x="210" y="1" width="104.73" height="56" as="geometry" />
        </mxCell>
        <mxCell id="UMwyM1W5Pn3s6P2YmB9g-95" value="valid&lt;br&gt;byte" style="rounded=0;whiteSpace=wrap;html=1;fillColor=#fff2cc;strokeColor=#d6b656;" parent="UMwyM1W5Pn3s6P2YmB9g-94" vertex="1">
          <mxGeometry width="30.537634408602155" height="56" as="geometry" />
        </mxCell>
        <mxCell id="UMwyM1W5Pn3s6P2YmB9g-96" value="data&lt;br&gt;addr" style="rounded=0;whiteSpace=wrap;html=1;fillColor=#fff2cc;strokeColor=#d6b656;" parent="UMwyM1W5Pn3s6P2YmB9g-94" vertex="1">
          <mxGeometry x="30.540000000000028" width="34.46000000000001" height="56" as="geometry" />
        </mxCell>
        <mxCell id="UMwyM1W5Pn3s6P2YmB9g-97" value="next&lt;br&gt;addr" style="rounded=0;whiteSpace=wrap;html=1;fillColor=#fff2cc;strokeColor=#d6b656;" parent="UMwyM1W5Pn3s6P2YmB9g-94" vertex="1">
          <mxGeometry x="65.00000000000001" width="39.730000000000004" height="56" as="geometry" />
        </mxCell>
        <mxCell id="UMwyM1W5Pn3s6P2YmB9g-99" value="" style="group" parent="UMwyM1W5Pn3s6P2YmB9g-53" vertex="1" connectable="0">
          <mxGeometry y="57" width="104.72999999999999" height="57" as="geometry" />
        </mxCell>
        <mxCell id="UMwyM1W5Pn3s6P2YmB9g-100" value="valid&lt;br&gt;byte" style="rounded=0;whiteSpace=wrap;html=1;" parent="UMwyM1W5Pn3s6P2YmB9g-99" vertex="1">
          <mxGeometry width="30.53763440860215" height="57" as="geometry" />
        </mxCell>
        <mxCell id="UMwyM1W5Pn3s6P2YmB9g-101" value="data&lt;br&gt;addr" style="rounded=0;whiteSpace=wrap;html=1;" parent="UMwyM1W5Pn3s6P2YmB9g-99" vertex="1">
          <mxGeometry x="30.54000000000002" width="34.46" height="57" as="geometry" />
        </mxCell>
        <mxCell id="UMwyM1W5Pn3s6P2YmB9g-102" value="next&lt;br&gt;addr" style="rounded=0;whiteSpace=wrap;html=1;" parent="UMwyM1W5Pn3s6P2YmB9g-99" vertex="1">
          <mxGeometry x="65" width="39.73" height="57" as="geometry" />
        </mxCell>
        <mxCell id="UMwyM1W5Pn3s6P2YmB9g-107" style="edgeStyle=orthogonalEdgeStyle;rounded=0;orthogonalLoop=1;jettySize=auto;html=1;" parent="UMwyM1W5Pn3s6P2YmB9g-53" source="UMwyM1W5Pn3s6P2YmB9g-96" target="UMwyM1W5Pn3s6P2YmB9g-91" edge="1">
          <mxGeometry relative="1" as="geometry" />
        </mxCell>
        <mxCell id="UMwyM1W5Pn3s6P2YmB9g-108" style="edgeStyle=orthogonalEdgeStyle;rounded=0;orthogonalLoop=1;jettySize=auto;html=1;exitX=0.5;exitY=1;exitDx=0;exitDy=0;" parent="UMwyM1W5Pn3s6P2YmB9g-53" source="UMwyM1W5Pn3s6P2YmB9g-74" target="UMwyM1W5Pn3s6P2YmB9g-79" edge="1">
          <mxGeometry relative="1" as="geometry" />
        </mxCell>
        <mxCell id="UMwyM1W5Pn3s6P2YmB9g-119" style="edgeStyle=orthogonalEdgeStyle;rounded=0;orthogonalLoop=1;jettySize=auto;html=1;entryX=0.5;entryY=0;entryDx=0;entryDy=0;" parent="UMwyM1W5Pn3s6P2YmB9g-53" source="UMwyM1W5Pn3s6P2YmB9g-57" target="UMwyM1W5Pn3s6P2YmB9g-73" edge="1">
          <mxGeometry relative="1" as="geometry">
            <Array as="points">
              <mxPoint x="85" y="-20" />
              <mxPoint x="120" y="-20" />
            </Array>
          </mxGeometry>
        </mxCell>
        <mxCell id="UMwyM1W5Pn3s6P2YmB9g-120" style="edgeStyle=orthogonalEdgeStyle;rounded=0;orthogonalLoop=1;jettySize=auto;html=1;entryX=0.5;entryY=0;entryDx=0;entryDy=0;" parent="UMwyM1W5Pn3s6P2YmB9g-53" source="UMwyM1W5Pn3s6P2YmB9g-75" target="UMwyM1W5Pn3s6P2YmB9g-95" edge="1">
          <mxGeometry relative="1" as="geometry">
            <Array as="points">
              <mxPoint x="190" y="-23" />
              <mxPoint x="225" y="-23" />
            </Array>
          </mxGeometry>
        </mxCell>
        <mxCell id="UMwyM1W5Pn3s6P2YmB9g-54" value="" style="group;strokeWidth=3;" parent="UMwyM1W5Pn3s6P2YmB9g-53" vertex="1" connectable="0">
          <mxGeometry width="142" height="57" as="geometry" />
        </mxCell>
        <mxCell id="UMwyM1W5Pn3s6P2YmB9g-55" value="valid&lt;br&gt;byte" style="rounded=0;whiteSpace=wrap;html=1;fillColor=#fff2cc;strokeColor=#d6b656;" parent="UMwyM1W5Pn3s6P2YmB9g-54" vertex="1">
          <mxGeometry width="30.53763440860215" height="57" as="geometry" />
        </mxCell>
        <mxCell id="UMwyM1W5Pn3s6P2YmB9g-56" value="data&lt;br&gt;addr" style="rounded=0;whiteSpace=wrap;html=1;fillColor=#fff2cc;strokeColor=#d6b656;" parent="UMwyM1W5Pn3s6P2YmB9g-54" vertex="1">
          <mxGeometry x="30.54" width="34.46" height="57" as="geometry" />
        </mxCell>
        <mxCell id="UMwyM1W5Pn3s6P2YmB9g-57" value="next&lt;br&gt;addr" style="rounded=0;whiteSpace=wrap;html=1;fillColor=#fff2cc;strokeColor=#d6b656;" parent="UMwyM1W5Pn3s6P2YmB9g-54" vertex="1">
          <mxGeometry x="65" width="39.73" height="57" as="geometry" />
        </mxCell>
        <mxCell id="UMwyM1W5Pn3s6P2YmB9g-122" style="edgeStyle=orthogonalEdgeStyle;rounded=0;orthogonalLoop=1;jettySize=auto;html=1;exitX=0.5;exitY=0;exitDx=0;exitDy=0;entryX=0;entryY=0.5;entryDx=0;entryDy=0;" parent="UMwyM1W5Pn3s6P2YmB9g-53" source="UMwyM1W5Pn3s6P2YmB9g-101" target="UMwyM1W5Pn3s6P2YmB9g-92" edge="1">
          <mxGeometry relative="1" as="geometry">
            <Array as="points">
              <mxPoint x="37" y="57" />
              <mxPoint x="37" y="193" />
            </Array>
          </mxGeometry>
        </mxCell>
        <mxCell id="UMwyM1W5Pn3s6P2YmB9g-123" style="edgeStyle=orthogonalEdgeStyle;rounded=0;orthogonalLoop=1;jettySize=auto;html=1;entryX=0;entryY=0.25;entryDx=0;entryDy=0;" parent="UMwyM1W5Pn3s6P2YmB9g-53" source="UMwyM1W5Pn3s6P2YmB9g-101" target="UMwyM1W5Pn3s6P2YmB9g-92" edge="1">
          <mxGeometry relative="1" as="geometry">
            <Array as="points">
              <mxPoint x="53" y="171" />
            </Array>
          </mxGeometry>
        </mxCell>
        <mxCell id="2XTefIz1HCk_Dmgl4uMw-46" value="" style="group" parent="1" vertex="1" connectable="0">
          <mxGeometry x="157.5" y="420" width="186" height="60" as="geometry" />
        </mxCell>
        <mxCell id="2XTefIz1HCk_Dmgl4uMw-43" value="valid&lt;br&gt;byte" style="rounded=0;whiteSpace=wrap;html=1;" parent="2XTefIz1HCk_Dmgl4uMw-46" vertex="1">
          <mxGeometry width="40" height="60" as="geometry" />
        </mxCell>
        <mxCell id="2XTefIz1HCk_Dmgl4uMw-44" value="data&lt;br&gt;addr" style="rounded=0;whiteSpace=wrap;html=1;" parent="2XTefIz1HCk_Dmgl4uMw-46" vertex="1">
          <mxGeometry x="40" width="73" height="60" as="geometry" />
        </mxCell>
        <mxCell id="2XTefIz1HCk_Dmgl4uMw-45" value="next&lt;br&gt;addr" style="rounded=0;whiteSpace=wrap;html=1;" parent="2XTefIz1HCk_Dmgl4uMw-46" vertex="1">
          <mxGeometry x="113" width="73" height="60" as="geometry" />
        </mxCell>
        <mxCell id="2XTefIz1HCk_Dmgl4uMw-47" value="" style="group" parent="1" vertex="1" connectable="0">
          <mxGeometry x="396.5" y="420" width="186" height="60" as="geometry" />
        </mxCell>
        <mxCell id="2XTefIz1HCk_Dmgl4uMw-48" value="valid&lt;br&gt;byte" style="rounded=0;whiteSpace=wrap;html=1;" parent="2XTefIz1HCk_Dmgl4uMw-47" vertex="1">
          <mxGeometry width="40" height="60" as="geometry" />
        </mxCell>
        <mxCell id="2XTefIz1HCk_Dmgl4uMw-49" value="data&lt;br&gt;addr" style="rounded=0;whiteSpace=wrap;html=1;" parent="2XTefIz1HCk_Dmgl4uMw-47" vertex="1">
          <mxGeometry x="40" width="73" height="60" as="geometry" />
        </mxCell>
        <mxCell id="2XTefIz1HCk_Dmgl4uMw-50" value="next&lt;br&gt;addr" style="rounded=0;whiteSpace=wrap;html=1;" parent="2XTefIz1HCk_Dmgl4uMw-47" vertex="1">
          <mxGeometry x="113" width="73" height="60" as="geometry" />
        </mxCell>
        <mxCell id="2XTefIz1HCk_Dmgl4uMw-52" style="edgeStyle=orthogonalEdgeStyle;rounded=0;orthogonalLoop=1;jettySize=auto;html=1;entryX=0;entryY=0.5;entryDx=0;entryDy=0;" parent="1" source="2XTefIz1HCk_Dmgl4uMw-45" target="2XTefIz1HCk_Dmgl4uMw-48" edge="1">
          <mxGeometry relative="1" as="geometry" />
        </mxCell>
        <mxCell id="2XTefIz1HCk_Dmgl4uMw-53" style="edgeStyle=orthogonalEdgeStyle;rounded=0;orthogonalLoop=1;jettySize=auto;html=1;" parent="1" source="2XTefIz1HCk_Dmgl4uMw-44" target="2XTefIz1HCk_Dmgl4uMw-54" edge="1">
          <mxGeometry relative="1" as="geometry">
            <mxPoint x="234" y="518.9438247680664" as="targetPoint" />
          </mxGeometry>
        </mxCell>
        <mxCell id="2XTefIz1HCk_Dmgl4uMw-56" style="edgeStyle=orthogonalEdgeStyle;rounded=0;orthogonalLoop=1;jettySize=auto;html=1;entryX=0.5;entryY=0;entryDx=0;entryDy=0;" parent="1" source="2XTefIz1HCk_Dmgl4uMw-49" target="2XTefIz1HCk_Dmgl4uMw-55" edge="1">
          <mxGeometry relative="1" as="geometry" />
        </mxCell>
        <mxCell id="2XTefIz1HCk_Dmgl4uMw-59" style="edgeStyle=orthogonalEdgeStyle;rounded=0;orthogonalLoop=1;jettySize=auto;html=1;" parent="1" source="2XTefIz1HCk_Dmgl4uMw-58" target="2XTefIz1HCk_Dmgl4uMw-43" edge="1">
          <mxGeometry relative="1" as="geometry" />
        </mxCell>
        <mxCell id="2XTefIz1HCk_Dmgl4uMw-58" value="head" style="rounded=1;whiteSpace=wrap;html=1;" parent="1" vertex="1">
          <mxGeometry x="141" y="345" width="73" height="38" as="geometry" />
        </mxCell>
        <mxCell id="2XTefIz1HCk_Dmgl4uMw-61" style="edgeStyle=orthogonalEdgeStyle;rounded=0;orthogonalLoop=1;jettySize=auto;html=1;entryX=0.5;entryY=0;entryDx=0;entryDy=0;" parent="1" source="2XTefIz1HCk_Dmgl4uMw-60" target="2XTefIz1HCk_Dmgl4uMw-50" edge="1">
          <mxGeometry relative="1" as="geometry" />
        </mxCell>
        <mxCell id="2XTefIz1HCk_Dmgl4uMw-60" value="tail" style="rounded=1;whiteSpace=wrap;html=1;" parent="1" vertex="1">
          <mxGeometry x="509.5" y="345" width="73" height="38" as="geometry" />
        </mxCell>
        <mxCell id="2XTefIz1HCk_Dmgl4uMw-54" value="data" style="whiteSpace=wrap;html=1;aspect=fixed;" parent="1" vertex="1">
          <mxGeometry x="201.5" y="524" width="65" height="65" as="geometry" />
        </mxCell>
        <mxCell id="2XTefIz1HCk_Dmgl4uMw-55" value="data" style="whiteSpace=wrap;html=1;aspect=fixed;" parent="1" vertex="1">
          <mxGeometry x="440.5" y="524" width="65" height="65" as="geometry" />
        </mxCell>
        <mxCell id="Uww1PLLZbzLxYwX52zht-9" style="rounded=0;orthogonalLoop=1;jettySize=auto;html=1;exitX=0;exitY=1;exitDx=0;exitDy=0;entryX=0.5;entryY=0;entryDx=0;entryDy=0;" parent="1" source="Uww1PLLZbzLxYwX52zht-4" target="Uww1PLLZbzLxYwX52zht-5" edge="1">
          <mxGeometry relative="1" as="geometry" />
        </mxCell>
        <mxCell id="Uww1PLLZbzLxYwX52zht-10" style="edgeStyle=none;rounded=0;orthogonalLoop=1;jettySize=auto;html=1;exitX=1;exitY=1;exitDx=0;exitDy=0;entryX=0.5;entryY=0;entryDx=0;entryDy=0;" parent="1" source="Uww1PLLZbzLxYwX52zht-4" target="Uww1PLLZbzLxYwX52zht-8" edge="1">
          <mxGeometry relative="1" as="geometry" />
        </mxCell>
        <mxCell id="Uww1PLLZbzLxYwX52zht-4" value="&lt;font style=&quot;font-size: 24px&quot;&gt;Sa&lt;/font&gt;" style="ellipse;whiteSpace=wrap;html=1;aspect=fixed;" parent="1" vertex="1">
          <mxGeometry x="328" y="2254" width="80" height="80" as="geometry" />
        </mxCell>
        <mxCell id="Uww1PLLZbzLxYwX52zht-5" value="&lt;font style=&quot;font-size: 24px&quot;&gt;Sb&lt;/font&gt;" style="ellipse;whiteSpace=wrap;html=1;aspect=fixed;" parent="1" vertex="1">
          <mxGeometry x="263.5" y="2365" width="80" height="80" as="geometry" />
        </mxCell>
        <mxCell id="Uww1PLLZbzLxYwX52zht-8" value="&lt;font style=&quot;font-size: 24px&quot;&gt;Sc&lt;/font&gt;" style="ellipse;whiteSpace=wrap;html=1;aspect=fixed;" parent="1" vertex="1">
          <mxGeometry x="396.5" y="2365" width="80" height="80" as="geometry" />
        </mxCell>
        <mxCell id="Uww1PLLZbzLxYwX52zht-21" style="rounded=0;orthogonalLoop=1;jettySize=auto;html=1;exitX=0;exitY=1;exitDx=0;exitDy=0;entryX=0.5;entryY=0;entryDx=0;entryDy=0;" parent="1" source="Uww1PLLZbzLxYwX52zht-23" target="Uww1PLLZbzLxYwX52zht-26" edge="1">
          <mxGeometry relative="1" as="geometry" />
        </mxCell>
        <mxCell id="Uww1PLLZbzLxYwX52zht-22" style="edgeStyle=none;rounded=0;orthogonalLoop=1;jettySize=auto;html=1;exitX=1;exitY=1;exitDx=0;exitDy=0;entryX=0.5;entryY=0;entryDx=0;entryDy=0;" parent="1" source="Uww1PLLZbzLxYwX52zht-23" target="Uww1PLLZbzLxYwX52zht-29" edge="1">
          <mxGeometry relative="1" as="geometry" />
        </mxCell>
        <mxCell id="Uww1PLLZbzLxYwX52zht-23" value="&lt;font style=&quot;font-size: 24px&quot;&gt;Sa&lt;/font&gt;" style="ellipse;whiteSpace=wrap;html=1;aspect=fixed;" parent="1" vertex="1">
          <mxGeometry x="168" y="2639" width="80" height="80" as="geometry" />
        </mxCell>
        <mxCell id="Uww1PLLZbzLxYwX52zht-26" value="&lt;font style=&quot;font-size: 24px&quot;&gt;Sb&lt;/font&gt;" style="ellipse;whiteSpace=wrap;html=1;aspect=fixed;" parent="1" vertex="1">
          <mxGeometry x="110" y="2747" width="80" height="80" as="geometry" />
        </mxCell>
        <mxCell id="Uww1PLLZbzLxYwX52zht-29" value="&lt;font style=&quot;font-size: 24px&quot;&gt;Sc&lt;/font&gt;" style="ellipse;whiteSpace=wrap;html=1;aspect=fixed;" parent="1" vertex="1">
          <mxGeometry x="227.5" y="2747" width="80" height="80" as="geometry" />
        </mxCell>
        <mxCell id="Uww1PLLZbzLxYwX52zht-31" value="" style="endArrow=classic;html=1;strokeWidth=3;strokeColor=#FF0000;" parent="1" edge="1">
          <mxGeometry width="50" height="50" relative="1" as="geometry">
            <mxPoint x="207.5" y="2624" as="sourcePoint" />
            <mxPoint x="207.5" y="2575" as="targetPoint" />
          </mxGeometry>
        </mxCell>
        <mxCell id="Uww1PLLZbzLxYwX52zht-32" value="&lt;font style=&quot;font-size: 18px&quot;&gt;a&lt;/font&gt;" style="text;html=1;strokeColor=none;fillColor=none;align=center;verticalAlign=middle;whiteSpace=wrap;rounded=0;" parent="1" vertex="1">
          <mxGeometry x="197" y="2597" width="40" height="20" as="geometry" />
        </mxCell>
        <mxCell id="Uww1PLLZbzLxYwX52zht-33" style="edgeStyle=none;rounded=0;orthogonalLoop=1;jettySize=auto;html=1;exitX=0.5;exitY=1;exitDx=0;exitDy=0;strokeWidth=3;" parent="1" source="Uww1PLLZbzLxYwX52zht-32" target="Uww1PLLZbzLxYwX52zht-32" edge="1">
          <mxGeometry relative="1" as="geometry" />
        </mxCell>
        <mxCell id="Uww1PLLZbzLxYwX52zht-34" style="edgeStyle=none;rounded=0;orthogonalLoop=1;jettySize=auto;html=1;exitX=0.5;exitY=0;exitDx=0;exitDy=0;strokeWidth=3;" parent="1" source="Uww1PLLZbzLxYwX52zht-32" target="Uww1PLLZbzLxYwX52zht-32" edge="1">
          <mxGeometry relative="1" as="geometry" />
        </mxCell>
        <mxCell id="Uww1PLLZbzLxYwX52zht-35" style="rounded=0;orthogonalLoop=1;jettySize=auto;html=1;exitX=0;exitY=1;exitDx=0;exitDy=0;entryX=0.5;entryY=0;entryDx=0;entryDy=0;" parent="1" source="Uww1PLLZbzLxYwX52zht-37" target="Uww1PLLZbzLxYwX52zht-40" edge="1">
          <mxGeometry relative="1" as="geometry" />
        </mxCell>
        <mxCell id="Uww1PLLZbzLxYwX52zht-36" style="edgeStyle=none;rounded=0;orthogonalLoop=1;jettySize=auto;html=1;exitX=1;exitY=1;exitDx=0;exitDy=0;entryX=0.5;entryY=0;entryDx=0;entryDy=0;" parent="1" source="Uww1PLLZbzLxYwX52zht-37" target="Uww1PLLZbzLxYwX52zht-43" edge="1">
          <mxGeometry relative="1" as="geometry" />
        </mxCell>
        <mxCell id="Uww1PLLZbzLxYwX52zht-37" value="&lt;font style=&quot;font-size: 24px&quot;&gt;Sa&lt;/font&gt;" style="ellipse;whiteSpace=wrap;html=1;aspect=fixed;" parent="1" vertex="1">
          <mxGeometry x="422" y="2639" width="80" height="80" as="geometry" />
        </mxCell>
        <mxCell id="Uww1PLLZbzLxYwX52zht-40" value="&lt;font style=&quot;font-size: 24px&quot;&gt;Sb&lt;/font&gt;" style="ellipse;whiteSpace=wrap;html=1;aspect=fixed;" parent="1" vertex="1">
          <mxGeometry x="359.5" y="2747" width="80" height="80" as="geometry" />
        </mxCell>
        <mxCell id="Uww1PLLZbzLxYwX52zht-43" value="&lt;font style=&quot;font-size: 24px&quot;&gt;Sc&lt;/font&gt;" style="ellipse;whiteSpace=wrap;html=1;aspect=fixed;" parent="1" vertex="1">
          <mxGeometry x="493" y="2747" width="80" height="80" as="geometry" />
        </mxCell>
        <mxCell id="Uww1PLLZbzLxYwX52zht-46" style="edgeStyle=none;rounded=0;orthogonalLoop=1;jettySize=auto;html=1;exitX=0.5;exitY=1;exitDx=0;exitDy=0;strokeWidth=3;" parent="1" edge="1">
          <mxGeometry relative="1" as="geometry">
            <mxPoint x="456" y="2588" as="sourcePoint" />
            <mxPoint x="456" y="2588" as="targetPoint" />
          </mxGeometry>
        </mxCell>
        <mxCell id="Uww1PLLZbzLxYwX52zht-47" style="edgeStyle=none;rounded=0;orthogonalLoop=1;jettySize=auto;html=1;exitX=0.5;exitY=0;exitDx=0;exitDy=0;strokeWidth=3;" parent="1" edge="1">
          <mxGeometry relative="1" as="geometry">
            <mxPoint x="456" y="2568" as="sourcePoint" />
            <mxPoint x="456" y="2568" as="targetPoint" />
          </mxGeometry>
        </mxCell>
        <mxCell id="Uww1PLLZbzLxYwX52zht-51" value="" style="endArrow=classic;html=1;strokeWidth=3;strokeColor=#FF0000;" parent="1" edge="1">
          <mxGeometry width="50" height="50" relative="1" as="geometry">
            <mxPoint x="559" y="2721" as="sourcePoint" />
            <mxPoint x="507" y="2651" as="targetPoint" />
          </mxGeometry>
        </mxCell>
        <mxCell id="Uww1PLLZbzLxYwX52zht-52" value="" style="endArrow=classic;html=1;strokeWidth=3;strokeColor=#FF0000;" parent="1" edge="1">
          <mxGeometry width="50" height="50" relative="1" as="geometry">
            <mxPoint x="371" y="2715" as="sourcePoint" />
            <mxPoint x="417" y="2651" as="targetPoint" />
          </mxGeometry>
        </mxCell>
        <mxCell id="Uww1PLLZbzLxYwX52zht-54" value="&lt;font style=&quot;font-size: 18px&quot;&gt;b&lt;/font&gt;" style="text;html=1;strokeColor=none;fillColor=none;align=center;verticalAlign=middle;whiteSpace=wrap;rounded=0;" parent="1" vertex="1">
          <mxGeometry x="107" y="2982" width="40" height="20" as="geometry" />
        </mxCell>
        <mxCell id="Uww1PLLZbzLxYwX52zht-55" value="&lt;span style=&quot;font-size: 18px&quot;&gt;c&lt;/span&gt;" style="text;html=1;strokeColor=none;fillColor=none;align=center;verticalAlign=middle;whiteSpace=wrap;rounded=0;" parent="1" vertex="1">
          <mxGeometry x="525" y="2669" width="40" height="20" as="geometry" />
        </mxCell>
        <mxCell id="Uww1PLLZbzLxYwX52zht-56" value="&lt;font style=&quot;font-size: 18px&quot;&gt;b, c&lt;/font&gt;" style="text;html=1;strokeColor=none;fillColor=none;align=center;verticalAlign=middle;whiteSpace=wrap;rounded=0;" parent="1" vertex="1">
          <mxGeometry x="469" y="2597" width="40" height="20" as="geometry" />
        </mxCell>
        <mxCell id="Uww1PLLZbzLxYwX52zht-57" style="edgeStyle=none;rounded=0;orthogonalLoop=1;jettySize=auto;html=1;exitX=0.5;exitY=1;exitDx=0;exitDy=0;strokeWidth=3;" parent="1" source="Uww1PLLZbzLxYwX52zht-56" target="Uww1PLLZbzLxYwX52zht-56" edge="1">
          <mxGeometry relative="1" as="geometry" />
        </mxCell>
        <mxCell id="Uww1PLLZbzLxYwX52zht-58" style="edgeStyle=none;rounded=0;orthogonalLoop=1;jettySize=auto;html=1;exitX=0.5;exitY=0;exitDx=0;exitDy=0;strokeWidth=3;" parent="1" source="Uww1PLLZbzLxYwX52zht-56" target="Uww1PLLZbzLxYwX52zht-56" edge="1">
          <mxGeometry relative="1" as="geometry" />
        </mxCell>
        <mxCell id="Uww1PLLZbzLxYwX52zht-59" value="" style="endArrow=classic;html=1;strokeWidth=3;strokeColor=#FF3333;" parent="1" edge="1">
          <mxGeometry width="50" height="50" relative="1" as="geometry">
            <mxPoint x="461.5" y="2627.5" as="sourcePoint" />
            <mxPoint x="461.5" y="2578.5" as="targetPoint" />
          </mxGeometry>
        </mxCell>
        <mxCell id="Uww1PLLZbzLxYwX52zht-60" style="rounded=0;orthogonalLoop=1;jettySize=auto;html=1;exitX=0;exitY=1;exitDx=0;exitDy=0;entryX=0.5;entryY=0;entryDx=0;entryDy=0;" parent="1" source="Uww1PLLZbzLxYwX52zht-62" target="Uww1PLLZbzLxYwX52zht-63" edge="1">
          <mxGeometry relative="1" as="geometry" />
        </mxCell>
        <mxCell id="Uww1PLLZbzLxYwX52zht-61" style="edgeStyle=none;rounded=0;orthogonalLoop=1;jettySize=auto;html=1;exitX=1;exitY=1;exitDx=0;exitDy=0;entryX=0.5;entryY=0;entryDx=0;entryDy=0;" parent="1" source="Uww1PLLZbzLxYwX52zht-62" target="Uww1PLLZbzLxYwX52zht-64" edge="1">
          <mxGeometry relative="1" as="geometry" />
        </mxCell>
        <mxCell id="Uww1PLLZbzLxYwX52zht-62" value="&lt;font style=&quot;font-size: 24px&quot;&gt;Sa&lt;/font&gt;" style="ellipse;whiteSpace=wrap;html=1;aspect=fixed;" parent="1" vertex="1">
          <mxGeometry x="175.25" y="2927" width="80" height="80" as="geometry" />
        </mxCell>
        <mxCell id="Uww1PLLZbzLxYwX52zht-63" value="&lt;font style=&quot;font-size: 24px&quot;&gt;Sb&lt;/font&gt;" style="ellipse;whiteSpace=wrap;html=1;aspect=fixed;" parent="1" vertex="1">
          <mxGeometry x="117.25" y="3035" width="80" height="80" as="geometry" />
        </mxCell>
        <mxCell id="Uww1PLLZbzLxYwX52zht-64" value="&lt;font style=&quot;font-size: 24px&quot;&gt;Sc&lt;/font&gt;" style="ellipse;whiteSpace=wrap;html=1;aspect=fixed;" parent="1" vertex="1">
          <mxGeometry x="234.75" y="3035" width="80" height="80" as="geometry" />
        </mxCell>
        <mxCell id="Uww1PLLZbzLxYwX52zht-65" value="" style="endArrow=classic;html=1;strokeWidth=3;strokeColor=#FF0000;" parent="1" edge="1">
          <mxGeometry width="50" height="50" relative="1" as="geometry">
            <mxPoint x="214.75" y="2912" as="sourcePoint" />
            <mxPoint x="214.75" y="2863" as="targetPoint" />
          </mxGeometry>
        </mxCell>
        <mxCell id="Uww1PLLZbzLxYwX52zht-66" value="&lt;font style=&quot;font-size: 18px&quot;&gt;a,b&lt;/font&gt;" style="text;html=1;strokeColor=none;fillColor=none;align=center;verticalAlign=middle;whiteSpace=wrap;rounded=0;" parent="1" vertex="1">
          <mxGeometry x="216" y="2884" width="40" height="19" as="geometry" />
        </mxCell>
        <mxCell id="Uww1PLLZbzLxYwX52zht-67" style="edgeStyle=none;rounded=0;orthogonalLoop=1;jettySize=auto;html=1;exitX=0.5;exitY=1;exitDx=0;exitDy=0;strokeWidth=3;" parent="1" source="Uww1PLLZbzLxYwX52zht-66" target="Uww1PLLZbzLxYwX52zht-66" edge="1">
          <mxGeometry relative="1" as="geometry" />
        </mxCell>
        <mxCell id="Uww1PLLZbzLxYwX52zht-68" style="edgeStyle=none;rounded=0;orthogonalLoop=1;jettySize=auto;html=1;exitX=0.5;exitY=0;exitDx=0;exitDy=0;strokeWidth=3;" parent="1" source="Uww1PLLZbzLxYwX52zht-66" target="Uww1PLLZbzLxYwX52zht-66" edge="1">
          <mxGeometry relative="1" as="geometry" />
        </mxCell>
        <mxCell id="Uww1PLLZbzLxYwX52zht-69" value="" style="endArrow=classic;html=1;strokeWidth=3;strokeColor=#FF0000;" parent="1" edge="1">
          <mxGeometry width="50" height="50" relative="1" as="geometry">
            <mxPoint x="166" y="2964" as="sourcePoint" />
            <mxPoint x="135" y="3032" as="targetPoint" />
          </mxGeometry>
        </mxCell>
        <mxCell id="Uww1PLLZbzLxYwX52zht-70" value="" style="endArrow=classic;html=1;strokeWidth=3;strokeColor=#FF0000;" parent="1" edge="1">
          <mxGeometry width="50" height="50" relative="1" as="geometry">
            <mxPoint x="126" y="3022" as="sourcePoint" />
            <mxPoint x="158" y="2959" as="targetPoint" />
          </mxGeometry>
        </mxCell>
        <mxCell id="Uww1PLLZbzLxYwX52zht-71" value="&lt;font style=&quot;font-size: 18px&quot;&gt;a&lt;/font&gt;" style="text;html=1;strokeColor=none;fillColor=none;align=center;verticalAlign=middle;whiteSpace=wrap;rounded=0;" parent="1" vertex="1">
          <mxGeometry x="141" y="2992" width="40" height="20" as="geometry" />
        </mxCell>
        <mxCell id="Uww1PLLZbzLxYwX52zht-73" style="rounded=0;orthogonalLoop=1;jettySize=auto;html=1;exitX=0;exitY=1;exitDx=0;exitDy=0;entryX=0.5;entryY=0;entryDx=0;entryDy=0;" parent="1" source="Uww1PLLZbzLxYwX52zht-75" target="Uww1PLLZbzLxYwX52zht-76" edge="1">
          <mxGeometry relative="1" as="geometry" />
        </mxCell>
        <mxCell id="Uww1PLLZbzLxYwX52zht-74" style="edgeStyle=none;rounded=0;orthogonalLoop=1;jettySize=auto;html=1;exitX=1;exitY=1;exitDx=0;exitDy=0;entryX=0.5;entryY=0;entryDx=0;entryDy=0;" parent="1" source="Uww1PLLZbzLxYwX52zht-75" target="Uww1PLLZbzLxYwX52zht-77" edge="1">
          <mxGeometry relative="1" as="geometry" />
        </mxCell>
        <mxCell id="Uww1PLLZbzLxYwX52zht-75" value="&lt;font style=&quot;font-size: 24px&quot;&gt;Sa&lt;/font&gt;" style="ellipse;whiteSpace=wrap;html=1;aspect=fixed;" parent="1" vertex="1">
          <mxGeometry x="433.5" y="2927" width="80" height="80" as="geometry" />
        </mxCell>
        <mxCell id="Uww1PLLZbzLxYwX52zht-76" value="&lt;font style=&quot;font-size: 24px&quot;&gt;Sb&lt;/font&gt;" style="ellipse;whiteSpace=wrap;html=1;aspect=fixed;" parent="1" vertex="1">
          <mxGeometry x="375.5" y="3035" width="80" height="80" as="geometry" />
        </mxCell>
        <mxCell id="Uww1PLLZbzLxYwX52zht-77" value="&lt;font style=&quot;font-size: 24px&quot;&gt;Sc&lt;/font&gt;" style="ellipse;whiteSpace=wrap;html=1;aspect=fixed;" parent="1" vertex="1">
          <mxGeometry x="493" y="3035" width="80" height="80" as="geometry" />
        </mxCell>
        <mxCell id="Uww1PLLZbzLxYwX52zht-78" value="" style="endArrow=classic;html=1;strokeWidth=3;strokeColor=#FF0000;" parent="1" edge="1">
          <mxGeometry width="50" height="50" relative="1" as="geometry">
            <mxPoint x="473" y="2912" as="sourcePoint" />
            <mxPoint x="473" y="2863" as="targetPoint" />
          </mxGeometry>
        </mxCell>
        <mxCell id="Uww1PLLZbzLxYwX52zht-79" value="&lt;font style=&quot;font-size: 18px&quot;&gt;a,c&lt;/font&gt;" style="text;html=1;strokeColor=none;fillColor=none;align=center;verticalAlign=middle;whiteSpace=wrap;rounded=0;" parent="1" vertex="1">
          <mxGeometry x="474.25" y="2884" width="40" height="19" as="geometry" />
        </mxCell>
        <mxCell id="Uww1PLLZbzLxYwX52zht-80" style="edgeStyle=none;rounded=0;orthogonalLoop=1;jettySize=auto;html=1;exitX=0.5;exitY=1;exitDx=0;exitDy=0;strokeWidth=3;" parent="1" source="Uww1PLLZbzLxYwX52zht-79" target="Uww1PLLZbzLxYwX52zht-79" edge="1">
          <mxGeometry relative="1" as="geometry" />
        </mxCell>
        <mxCell id="Uww1PLLZbzLxYwX52zht-81" style="edgeStyle=none;rounded=0;orthogonalLoop=1;jettySize=auto;html=1;exitX=0.5;exitY=0;exitDx=0;exitDy=0;strokeWidth=3;" parent="1" source="Uww1PLLZbzLxYwX52zht-79" target="Uww1PLLZbzLxYwX52zht-79" edge="1">
          <mxGeometry relative="1" as="geometry" />
        </mxCell>
        <mxCell id="Uww1PLLZbzLxYwX52zht-82" value="" style="endArrow=classic;html=1;strokeWidth=3;strokeColor=#FF0000;" parent="1" edge="1">
          <mxGeometry width="50" height="50" relative="1" as="geometry">
            <mxPoint x="523" y="2964" as="sourcePoint" />
            <mxPoint x="568" y="3029" as="targetPoint" />
          </mxGeometry>
        </mxCell>
        <mxCell id="Uww1PLLZbzLxYwX52zht-85" value="" style="endArrow=classic;html=1;strokeWidth=3;strokeColor=#FF0000;" parent="1" edge="1">
          <mxGeometry width="50" height="50" relative="1" as="geometry">
            <mxPoint x="576.5" y="3023" as="sourcePoint" />
            <mxPoint x="524.5" y="2953" as="targetPoint" />
          </mxGeometry>
        </mxCell>
        <mxCell id="Uww1PLLZbzLxYwX52zht-86" value="&lt;span style=&quot;font-size: 18px&quot;&gt;c&lt;/span&gt;" style="text;html=1;strokeColor=none;fillColor=none;align=center;verticalAlign=middle;whiteSpace=wrap;rounded=0;" parent="1" vertex="1">
          <mxGeometry x="542.5" y="2971" width="40" height="20" as="geometry" />
        </mxCell>
        <mxCell id="Uww1PLLZbzLxYwX52zht-87" value="&lt;font style=&quot;font-size: 18px&quot;&gt;a&lt;/font&gt;" style="text;html=1;strokeColor=none;fillColor=none;align=center;verticalAlign=middle;whiteSpace=wrap;rounded=0;" parent="1" vertex="1">
          <mxGeometry x="509.5" y="2992" width="40" height="20" as="geometry" />
        </mxCell>
        <mxCell id="Uww1PLLZbzLxYwX52zht-88" value="&lt;font style=&quot;font-size: 18px&quot;&gt;b&lt;/font&gt;" style="text;html=1;strokeColor=none;fillColor=none;align=center;verticalAlign=middle;whiteSpace=wrap;rounded=0;" parent="1" vertex="1">
          <mxGeometry x="353" y="2669" width="40" height="20" as="geometry" />
        </mxCell>
        <mxCell id="geJMSuZulplkEZxOENzH-7" style="edgeStyle=orthogonalEdgeStyle;rounded=0;orthogonalLoop=1;jettySize=auto;html=1;exitX=0.75;exitY=0;exitDx=0;exitDy=0;" edge="1" parent="1" source="geJMSuZulplkEZxOENzH-1" target="geJMSuZulplkEZxOENzH-2">
          <mxGeometry relative="1" as="geometry" />
        </mxCell>
        <mxCell id="geJMSuZulplkEZxOENzH-1" value="&lt;font style=&quot;font-size: 18px&quot;&gt;disk&lt;/font&gt;" style="rounded=1;whiteSpace=wrap;html=1;" vertex="1" parent="1">
          <mxGeometry x="-760" y="651" width="324" height="45" as="geometry" />
        </mxCell>
        <mxCell id="geJMSuZulplkEZxOENzH-13" style="edgeStyle=orthogonalEdgeStyle;rounded=0;orthogonalLoop=1;jettySize=auto;html=1;entryX=0.5;entryY=1;entryDx=0;entryDy=0;" edge="1" parent="1" source="geJMSuZulplkEZxOENzH-2" target="geJMSuZulplkEZxOENzH-11">
          <mxGeometry relative="1" as="geometry" />
        </mxCell>
        <mxCell id="geJMSuZulplkEZxOENzH-2" value="&lt;font style=&quot;font-size: 18px&quot;&gt;cpu: decode&lt;/font&gt;" style="rounded=1;whiteSpace=wrap;html=1;" vertex="1" parent="1">
          <mxGeometry x="-577" y="533" width="120" height="60" as="geometry" />
        </mxCell>
        <mxCell id="geJMSuZulplkEZxOENzH-6" style="edgeStyle=orthogonalEdgeStyle;rounded=0;orthogonalLoop=1;jettySize=auto;html=1;entryX=0.25;entryY=0;entryDx=0;entryDy=0;" edge="1" parent="1" source="geJMSuZulplkEZxOENzH-3" target="geJMSuZulplkEZxOENzH-1">
          <mxGeometry relative="1" as="geometry" />
        </mxCell>
        <mxCell id="geJMSuZulplkEZxOENzH-3" value="&lt;font style=&quot;font-size: 18px&quot;&gt;Sampling&lt;/font&gt;" style="rounded=1;whiteSpace=wrap;html=1;" vertex="1" parent="1">
          <mxGeometry x="-739" y="540" width="120" height="60" as="geometry" />
        </mxCell>
        <mxCell id="geJMSuZulplkEZxOENzH-5" style="edgeStyle=orthogonalEdgeStyle;rounded=0;orthogonalLoop=1;jettySize=auto;html=1;" edge="1" parent="1" source="geJMSuZulplkEZxOENzH-4" target="geJMSuZulplkEZxOENzH-3">
          <mxGeometry relative="1" as="geometry" />
        </mxCell>
        <mxCell id="geJMSuZulplkEZxOENzH-4" value="&lt;font style=&quot;font-size: 18px&quot;&gt;{1, 2, 3, .....}&lt;/font&gt;" style="text;html=1;strokeColor=none;fillColor=none;align=center;verticalAlign=middle;whiteSpace=wrap;rounded=0;" vertex="1" parent="1">
          <mxGeometry x="-742" y="448" width="126" height="19" as="geometry" />
        </mxCell>
        <mxCell id="geJMSuZulplkEZxOENzH-11" value="&lt;span style=&quot;font-size: 18px&quot;&gt;gpu: training&lt;/span&gt;" style="rounded=1;whiteSpace=wrap;html=1;" vertex="1" parent="1">
          <mxGeometry x="-577" y="433" width="120" height="60" as="geometry" />
        </mxCell>
        <mxCell id="geJMSuZulplkEZxOENzH-66" style="edgeStyle=orthogonalEdgeStyle;rounded=0;orthogonalLoop=1;jettySize=auto;html=1;exitX=0.75;exitY=0;exitDx=0;exitDy=0;entryX=0.5;entryY=1;entryDx=0;entryDy=0;" edge="1" parent="1" source="geJMSuZulplkEZxOENzH-23" target="geJMSuZulplkEZxOENzH-64">
          <mxGeometry relative="1" as="geometry" />
        </mxCell>
        <mxCell id="geJMSuZulplkEZxOENzH-23" value="&lt;font style=&quot;font-size: 18px&quot;&gt;disk&lt;/font&gt;" style="rounded=1;whiteSpace=wrap;html=1;" vertex="1" parent="1">
          <mxGeometry x="-746" y="991" width="507" height="48" as="geometry" />
        </mxCell>
        <mxCell id="geJMSuZulplkEZxOENzH-63" style="edgeStyle=orthogonalEdgeStyle;rounded=0;orthogonalLoop=1;jettySize=auto;html=1;entryX=0.25;entryY=0;entryDx=0;entryDy=0;" edge="1" parent="1" source="geJMSuZulplkEZxOENzH-27" target="geJMSuZulplkEZxOENzH-23">
          <mxGeometry relative="1" as="geometry" />
        </mxCell>
        <mxCell id="geJMSuZulplkEZxOENzH-27" value="&lt;font style=&quot;font-size: 18px&quot;&gt;Sampling&lt;/font&gt;" style="rounded=1;whiteSpace=wrap;html=1;" vertex="1" parent="1">
          <mxGeometry x="-674" y="896" width="110" height="56" as="geometry" />
        </mxCell>
        <mxCell id="geJMSuZulplkEZxOENzH-62" style="edgeStyle=orthogonalEdgeStyle;rounded=0;orthogonalLoop=1;jettySize=auto;html=1;entryX=0.5;entryY=0;entryDx=0;entryDy=0;" edge="1" parent="1" source="geJMSuZulplkEZxOENzH-29" target="geJMSuZulplkEZxOENzH-27">
          <mxGeometry relative="1" as="geometry" />
        </mxCell>
        <mxCell id="geJMSuZulplkEZxOENzH-29" value="&lt;font style=&quot;font-size: 18px&quot;&gt;{1, 2,}&lt;/font&gt;" style="text;html=1;strokeColor=none;fillColor=none;align=center;verticalAlign=middle;whiteSpace=wrap;rounded=0;" vertex="1" parent="1">
          <mxGeometry x="-634" y="844" width="126" height="19" as="geometry" />
        </mxCell>
        <mxCell id="geJMSuZulplkEZxOENzH-30" value="&lt;span style=&quot;font-size: 18px&quot;&gt;gpus: training&lt;/span&gt;" style="rounded=1;whiteSpace=wrap;html=1;" vertex="1" parent="1">
          <mxGeometry x="-491" y="761" width="118.25" height="51" as="geometry" />
        </mxCell>
        <mxCell id="geJMSuZulplkEZxOENzH-32" style="edgeStyle=orthogonalEdgeStyle;rounded=0;orthogonalLoop=1;jettySize=auto;html=1;exitX=0.5;exitY=1;exitDx=0;exitDy=0;" edge="1" parent="1" source="geJMSuZulplkEZxOENzH-29" target="geJMSuZulplkEZxOENzH-29">
          <mxGeometry relative="1" as="geometry" />
        </mxCell>
        <mxCell id="geJMSuZulplkEZxOENzH-61" style="edgeStyle=orthogonalEdgeStyle;rounded=0;orthogonalLoop=1;jettySize=auto;html=1;entryX=0.5;entryY=0;entryDx=0;entryDy=0;" edge="1" parent="1" source="geJMSuZulplkEZxOENzH-35" target="geJMSuZulplkEZxOENzH-27">
          <mxGeometry relative="1" as="geometry" />
        </mxCell>
        <mxCell id="geJMSuZulplkEZxOENzH-35" value="&lt;font style=&quot;font-size: 18px&quot;&gt;{1, 2}&lt;/font&gt;" style="text;html=1;strokeColor=none;fillColor=none;align=center;verticalAlign=middle;whiteSpace=wrap;rounded=0;" vertex="1" parent="1">
          <mxGeometry x="-721" y="844" width="126" height="19" as="geometry" />
        </mxCell>
        <mxCell id="geJMSuZulplkEZxOENzH-56" value="&lt;span style=&quot;font-size: 18px&quot;&gt;gpus: training&lt;/span&gt;" style="rounded=1;whiteSpace=wrap;html=1;" vertex="1" parent="1">
          <mxGeometry x="-365" y="761" width="118.25" height="51" as="geometry" />
        </mxCell>
        <mxCell id="geJMSuZulplkEZxOENzH-67" style="edgeStyle=orthogonalEdgeStyle;rounded=0;orthogonalLoop=1;jettySize=auto;html=1;" edge="1" parent="1" source="geJMSuZulplkEZxOENzH-64" target="geJMSuZulplkEZxOENzH-30">
          <mxGeometry relative="1" as="geometry" />
        </mxCell>
        <mxCell id="geJMSuZulplkEZxOENzH-68" style="edgeStyle=orthogonalEdgeStyle;rounded=0;orthogonalLoop=1;jettySize=auto;html=1;" edge="1" parent="1" source="geJMSuZulplkEZxOENzH-64" target="geJMSuZulplkEZxOENzH-56">
          <mxGeometry relative="1" as="geometry" />
        </mxCell>
        <mxCell id="geJMSuZulplkEZxOENzH-64" value="&lt;font style=&quot;font-size: 18px&quot;&gt;cpu: decode&lt;/font&gt;" style="rounded=1;whiteSpace=wrap;html=1;" vertex="1" parent="1">
          <mxGeometry x="-426" y="891" width="120" height="60" as="geometry" />
        </mxCell>
      </root>
    </mxGraphModel>
  </diagram>
</mxfile>
